<?xml version="1.0" standalone="no"?>
<!DOCTYPE svg PUBLIC "-//W3C//DTD SVG 20010904//EN"
 "http://www.w3.org/TR/2001/REC-SVG-20010904/DTD/svg10.dtd">
<svg version="1.0" xmlns="http://www.w3.org/2000/svg"
 width="512.000000pt" height="512.000000pt" viewBox="0 0 512.000000 512.000000"
 preserveAspectRatio="xMidYMid meet">

<g transform="translate(0.000000,512.000000) scale(0.100000,-0.100000)"
fill="#000000" stroke="none">
<path d="M3930 5033 c0 -50 -3 -117 -6 -150 l-7 -60 45 -7 c60 -9 145 -61 185
-114 66 -88 80 -219 33 -313 -13 -24 -65 -86 -116 -137 -106 -105 -172 -200
-219 -310 -67 -160 -85 -275 -85 -559 l0 -213 150 0 150 0 0 208 c0 225 9 301
45 405 33 97 75 157 197 283 119 125 169 208 194 323 72 342 -168 684 -510
726 l-56 7 0 -89z"/>
<path d="M933 4683 c8 -194 67 -337 188 -461 118 -120 119 -191 4 -294 -106
-95 -180 -236 -204 -388 -6 -36 -11 -134 -11 -217 l0 -153 150 0 150 0 0 145
c0 233 17 283 144 415 93 97 130 165 148 269 25 147 -19 273 -143 407 -97 105
-120 159 -127 297 l-4 97 -151 0 -150 0 6 -117z"/>
<path d="M2440 3584 c-154 -41 -286 -183 -321 -345 -14 -63 -7 -168 14 -229 9
-24 15 -46 13 -48 -2 -1 -39 -11 -82 -22 -291 -70 -615 -233 -844 -425 -237
-199 -415 -429 -550 -708 -106 -220 -179 -470 -197 -681 l-6 -76 -235 0 -235
0 6 -148 c3 -103 11 -171 26 -227 85 -321 337 -567 668 -652 64 -17 185 -18
1863 -18 l1795 0 85 23 c268 71 482 250 597 499 55 119 74 209 80 376 l6 147
-235 0 -235 0 -6 76 c-32 372 -218 810 -472 1112 -289 345 -665 585 -1085 693
-62 16 -115 31 -117 32 -1 2 5 23 14 47 21 61 28 166 14 229 -54 254 -311 412
-561 345z m190 -304 c45 -23 80 -80 80 -131 0 -74 -76 -149 -151 -149 -72 0
-149 77 -149 149 0 49 35 108 78 130 48 26 93 26 142 1z m118 -591 c530 -57
1010 -346 1305 -787 73 -109 177 -318 215 -437 36 -107 68 -254 78 -348 l7
-67 -769 0 -769 0 60 58 c33 31 126 119 206 194 81 76 160 159 178 186 74 115
96 255 62 387 -27 100 -70 172 -144 241 -156 145 -372 174 -564 77 l-52 -27
-55 27 c-278 136 -587 14 -694 -276 -47 -124 -38 -258 23 -384 31 -63 54 -89
187 -215 84 -79 182 -171 218 -205 l65 -63 -769 0 -769 0 7 68 c18 179 78 378
170 567 133 275 310 486 567 675 108 81 351 205 484 249 239 78 508 107 753
80z m-400 -754 c20 -9 76 -55 124 -102 l88 -87 92 91 c62 60 106 94 132 103
86 28 186 -13 228 -93 30 -58 30 -139 1 -188 -22 -35 -437 -424 -453 -424 -14
0 -431 389 -450 420 -96 155 70 349 238 280z m2447 -1207 c-3 -13 -22 -57 -42
-98 -73 -152 -237 -279 -408 -315 -105 -22 -3465 -22 -3570 0 -171 36 -335
163 -408 315 -20 41 -39 85 -42 98 l-6 22 2241 0 2241 0 -6 -22z"/>
</g>
</svg>
